<?xml version="1.0" encoding="utf-8" standalone="no"?>
<!DOCTYPE svg PUBLIC "-//W3C//DTD SVG 1.1//EN"
  "http://www.w3.org/Graphics/SVG/1.1/DTD/svg11.dtd">
<!-- Created with matplotlib (https://matplotlib.org/) -->
<svg height="248.518125pt" version="1.1" viewBox="0 0 380.482812 248.518125" width="380.482812pt" xmlns="http://www.w3.org/2000/svg" xmlns:xlink="http://www.w3.org/1999/xlink">
 <defs>
  <style type="text/css">
*{stroke-linecap:butt;stroke-linejoin:round;}
  </style>
 </defs>
 <g id="figure_1">
  <g id="patch_1">
   <path d="M -0 248.518125 
L 380.482812 248.518125 
L 380.482812 0 
L -0 0 
z
" style="fill:#ffffff;"/>
  </g>
  <g id="axes_1">
   <g id="patch_2">
    <path d="M 38.482813 224.64 
L 373.282813 224.64 
L 373.282813 7.2 
L 38.482813 7.2 
z
" style="fill:#ffffff;"/>
   </g>
   <g id="matplotlib.axis_1">
    <g id="xtick_1">
     <g id="line2d_1">
      <defs>
       <path d="M 0 0 
L 0 3.5 
" id="m1bbd333f63" style="stroke:#000000;stroke-width:0.8;"/>
      </defs>
      <g>
       <use style="stroke:#000000;stroke-width:0.8;" x="53.700994" xlink:href="#m1bbd333f63" y="224.64"/>
      </g>
     </g>
     <g id="text_1">
      <!-- 0 -->
      <defs>
       <path d="M 31.78125 66.40625 
Q 24.171875 66.40625 20.328125 58.90625 
Q 16.5 51.421875 16.5 36.375 
Q 16.5 21.390625 20.328125 13.890625 
Q 24.171875 6.390625 31.78125 6.390625 
Q 39.453125 6.390625 43.28125 13.890625 
Q 47.125 21.390625 47.125 36.375 
Q 47.125 51.421875 43.28125 58.90625 
Q 39.453125 66.40625 31.78125 66.40625 
z
M 31.78125 74.21875 
Q 44.046875 74.21875 50.515625 64.515625 
Q 56.984375 54.828125 56.984375 36.375 
Q 56.984375 17.96875 50.515625 8.265625 
Q 44.046875 -1.421875 31.78125 -1.421875 
Q 19.53125 -1.421875 13.0625 8.265625 
Q 6.59375 17.96875 6.59375 36.375 
Q 6.59375 54.828125 13.0625 64.515625 
Q 19.53125 74.21875 31.78125 74.21875 
z
" id="DejaVuSans-48"/>
      </defs>
      <g transform="translate(50.519744 239.238437)scale(0.1 -0.1)">
       <use xlink:href="#DejaVuSans-48"/>
      </g>
     </g>
    </g>
    <g id="xtick_2">
     <g id="line2d_2">
      <g>
       <use style="stroke:#000000;stroke-width:0.8;" x="102.141972" xlink:href="#m1bbd333f63" y="224.64"/>
      </g>
     </g>
     <g id="text_2">
      <!-- 2 -->
      <defs>
       <path d="M 19.1875 8.296875 
L 53.609375 8.296875 
L 53.609375 0 
L 7.328125 0 
L 7.328125 8.296875 
Q 12.9375 14.109375 22.625 23.890625 
Q 32.328125 33.6875 34.8125 36.53125 
Q 39.546875 41.84375 41.421875 45.53125 
Q 43.3125 49.21875 43.3125 52.78125 
Q 43.3125 58.59375 39.234375 62.25 
Q 35.15625 65.921875 28.609375 65.921875 
Q 23.96875 65.921875 18.8125 64.3125 
Q 13.671875 62.703125 7.8125 59.421875 
L 7.8125 69.390625 
Q 13.765625 71.78125 18.9375 73 
Q 24.125 74.21875 28.421875 74.21875 
Q 39.75 74.21875 46.484375 68.546875 
Q 53.21875 62.890625 53.21875 53.421875 
Q 53.21875 48.921875 51.53125 44.890625 
Q 49.859375 40.875 45.40625 35.40625 
Q 44.1875 33.984375 37.640625 27.21875 
Q 31.109375 20.453125 19.1875 8.296875 
z
" id="DejaVuSans-50"/>
      </defs>
      <g transform="translate(98.960722 239.238437)scale(0.1 -0.1)">
       <use xlink:href="#DejaVuSans-50"/>
      </g>
     </g>
    </g>
    <g id="xtick_3">
     <g id="line2d_3">
      <g>
       <use style="stroke:#000000;stroke-width:0.8;" x="150.582949" xlink:href="#m1bbd333f63" y="224.64"/>
      </g>
     </g>
     <g id="text_3">
      <!-- 4 -->
      <defs>
       <path d="M 37.796875 64.3125 
L 12.890625 25.390625 
L 37.796875 25.390625 
z
M 35.203125 72.90625 
L 47.609375 72.90625 
L 47.609375 25.390625 
L 58.015625 25.390625 
L 58.015625 17.1875 
L 47.609375 17.1875 
L 47.609375 0 
L 37.796875 0 
L 37.796875 17.1875 
L 4.890625 17.1875 
L 4.890625 26.703125 
z
" id="DejaVuSans-52"/>
      </defs>
      <g transform="translate(147.401699 239.238437)scale(0.1 -0.1)">
       <use xlink:href="#DejaVuSans-52"/>
      </g>
     </g>
    </g>
    <g id="xtick_4">
     <g id="line2d_4">
      <g>
       <use style="stroke:#000000;stroke-width:0.8;" x="199.023926" xlink:href="#m1bbd333f63" y="224.64"/>
      </g>
     </g>
     <g id="text_4">
      <!-- 6 -->
      <defs>
       <path d="M 33.015625 40.375 
Q 26.375 40.375 22.484375 35.828125 
Q 18.609375 31.296875 18.609375 23.390625 
Q 18.609375 15.53125 22.484375 10.953125 
Q 26.375 6.390625 33.015625 6.390625 
Q 39.65625 6.390625 43.53125 10.953125 
Q 47.40625 15.53125 47.40625 23.390625 
Q 47.40625 31.296875 43.53125 35.828125 
Q 39.65625 40.375 33.015625 40.375 
z
M 52.59375 71.296875 
L 52.59375 62.3125 
Q 48.875 64.0625 45.09375 64.984375 
Q 41.3125 65.921875 37.59375 65.921875 
Q 27.828125 65.921875 22.671875 59.328125 
Q 17.53125 52.734375 16.796875 39.40625 
Q 19.671875 43.65625 24.015625 45.921875 
Q 28.375 48.1875 33.59375 48.1875 
Q 44.578125 48.1875 50.953125 41.515625 
Q 57.328125 34.859375 57.328125 23.390625 
Q 57.328125 12.15625 50.6875 5.359375 
Q 44.046875 -1.421875 33.015625 -1.421875 
Q 20.359375 -1.421875 13.671875 8.265625 
Q 6.984375 17.96875 6.984375 36.375 
Q 6.984375 53.65625 15.1875 63.9375 
Q 23.390625 74.21875 37.203125 74.21875 
Q 40.921875 74.21875 44.703125 73.484375 
Q 48.484375 72.75 52.59375 71.296875 
z
" id="DejaVuSans-54"/>
      </defs>
      <g transform="translate(195.842676 239.238437)scale(0.1 -0.1)">
       <use xlink:href="#DejaVuSans-54"/>
      </g>
     </g>
    </g>
    <g id="xtick_5">
     <g id="line2d_5">
      <g>
       <use style="stroke:#000000;stroke-width:0.8;" x="247.464903" xlink:href="#m1bbd333f63" y="224.64"/>
      </g>
     </g>
     <g id="text_5">
      <!-- 8 -->
      <defs>
       <path d="M 31.78125 34.625 
Q 24.75 34.625 20.71875 30.859375 
Q 16.703125 27.09375 16.703125 20.515625 
Q 16.703125 13.921875 20.71875 10.15625 
Q 24.75 6.390625 31.78125 6.390625 
Q 38.8125 6.390625 42.859375 10.171875 
Q 46.921875 13.96875 46.921875 20.515625 
Q 46.921875 27.09375 42.890625 30.859375 
Q 38.875 34.625 31.78125 34.625 
z
M 21.921875 38.8125 
Q 15.578125 40.375 12.03125 44.71875 
Q 8.5 49.078125 8.5 55.328125 
Q 8.5 64.0625 14.71875 69.140625 
Q 20.953125 74.21875 31.78125 74.21875 
Q 42.671875 74.21875 48.875 69.140625 
Q 55.078125 64.0625 55.078125 55.328125 
Q 55.078125 49.078125 51.53125 44.71875 
Q 48 40.375 41.703125 38.8125 
Q 48.828125 37.15625 52.796875 32.3125 
Q 56.78125 27.484375 56.78125 20.515625 
Q 56.78125 9.90625 50.3125 4.234375 
Q 43.84375 -1.421875 31.78125 -1.421875 
Q 19.734375 -1.421875 13.25 4.234375 
Q 6.78125 9.90625 6.78125 20.515625 
Q 6.78125 27.484375 10.78125 32.3125 
Q 14.796875 37.15625 21.921875 38.8125 
z
M 18.3125 54.390625 
Q 18.3125 48.734375 21.84375 45.5625 
Q 25.390625 42.390625 31.78125 42.390625 
Q 38.140625 42.390625 41.71875 45.5625 
Q 45.3125 48.734375 45.3125 54.390625 
Q 45.3125 60.0625 41.71875 63.234375 
Q 38.140625 66.40625 31.78125 66.40625 
Q 25.390625 66.40625 21.84375 63.234375 
Q 18.3125 60.0625 18.3125 54.390625 
z
" id="DejaVuSans-56"/>
      </defs>
      <g transform="translate(244.283653 239.238437)scale(0.1 -0.1)">
       <use xlink:href="#DejaVuSans-56"/>
      </g>
     </g>
    </g>
    <g id="xtick_6">
     <g id="line2d_6">
      <g>
       <use style="stroke:#000000;stroke-width:0.8;" x="295.90588" xlink:href="#m1bbd333f63" y="224.64"/>
      </g>
     </g>
     <g id="text_6">
      <!-- 10 -->
      <defs>
       <path d="M 12.40625 8.296875 
L 28.515625 8.296875 
L 28.515625 63.921875 
L 10.984375 60.40625 
L 10.984375 69.390625 
L 28.421875 72.90625 
L 38.28125 72.90625 
L 38.28125 8.296875 
L 54.390625 8.296875 
L 54.390625 0 
L 12.40625 0 
z
" id="DejaVuSans-49"/>
      </defs>
      <g transform="translate(289.54338 239.238437)scale(0.1 -0.1)">
       <use xlink:href="#DejaVuSans-49"/>
       <use x="63.623047" xlink:href="#DejaVuSans-48"/>
      </g>
     </g>
    </g>
    <g id="xtick_7">
     <g id="line2d_7">
      <g>
       <use style="stroke:#000000;stroke-width:0.8;" x="344.346858" xlink:href="#m1bbd333f63" y="224.64"/>
      </g>
     </g>
     <g id="text_7">
      <!-- 12 -->
      <g transform="translate(337.984358 239.238437)scale(0.1 -0.1)">
       <use xlink:href="#DejaVuSans-49"/>
       <use x="63.623047" xlink:href="#DejaVuSans-50"/>
      </g>
     </g>
    </g>
   </g>
   <g id="matplotlib.axis_2">
    <g id="ytick_1">
     <g id="line2d_8">
      <defs>
       <path d="M 0 0 
L -3.5 0 
" id="ma137bfeb21" style="stroke:#000000;stroke-width:0.8;"/>
      </defs>
      <g>
       <use style="stroke:#000000;stroke-width:0.8;" x="38.482813" xlink:href="#ma137bfeb21" y="214.756364"/>
      </g>
     </g>
     <g id="text_8">
      <!-- −2.0 -->
      <defs>
       <path d="M 10.59375 35.5 
L 73.1875 35.5 
L 73.1875 27.203125 
L 10.59375 27.203125 
z
" id="DejaVuSans-8722"/>
       <path d="M 10.6875 12.40625 
L 21 12.40625 
L 21 0 
L 10.6875 0 
z
" id="DejaVuSans-46"/>
      </defs>
      <g transform="translate(7.2 218.555582)scale(0.1 -0.1)">
       <use xlink:href="#DejaVuSans-8722"/>
       <use x="83.789062" xlink:href="#DejaVuSans-50"/>
       <use x="147.412109" xlink:href="#DejaVuSans-46"/>
       <use x="179.199219" xlink:href="#DejaVuSans-48"/>
      </g>
     </g>
    </g>
    <g id="ytick_2">
     <g id="line2d_9">
      <g>
       <use style="stroke:#000000;stroke-width:0.8;" x="38.482813" xlink:href="#ma137bfeb21" y="190.047273"/>
      </g>
     </g>
     <g id="text_9">
      <!-- −1.5 -->
      <defs>
       <path d="M 10.796875 72.90625 
L 49.515625 72.90625 
L 49.515625 64.59375 
L 19.828125 64.59375 
L 19.828125 46.734375 
Q 21.96875 47.46875 24.109375 47.828125 
Q 26.265625 48.1875 28.421875 48.1875 
Q 40.625 48.1875 47.75 41.5 
Q 54.890625 34.8125 54.890625 23.390625 
Q 54.890625 11.625 47.5625 5.09375 
Q 40.234375 -1.421875 26.90625 -1.421875 
Q 22.3125 -1.421875 17.546875 -0.640625 
Q 12.796875 0.140625 7.71875 1.703125 
L 7.71875 11.625 
Q 12.109375 9.234375 16.796875 8.0625 
Q 21.484375 6.890625 26.703125 6.890625 
Q 35.15625 6.890625 40.078125 11.328125 
Q 45.015625 15.765625 45.015625 23.390625 
Q 45.015625 31 40.078125 35.4375 
Q 35.15625 39.890625 26.703125 39.890625 
Q 22.75 39.890625 18.8125 39.015625 
Q 14.890625 38.140625 10.796875 36.28125 
z
" id="DejaVuSans-53"/>
      </defs>
      <g transform="translate(7.2 193.846491)scale(0.1 -0.1)">
       <use xlink:href="#DejaVuSans-8722"/>
       <use x="83.789062" xlink:href="#DejaVuSans-49"/>
       <use x="147.412109" xlink:href="#DejaVuSans-46"/>
       <use x="179.199219" xlink:href="#DejaVuSans-53"/>
      </g>
     </g>
    </g>
    <g id="ytick_3">
     <g id="line2d_10">
      <g>
       <use style="stroke:#000000;stroke-width:0.8;" x="38.482813" xlink:href="#ma137bfeb21" y="165.338182"/>
      </g>
     </g>
     <g id="text_10">
      <!-- −1.0 -->
      <g transform="translate(7.2 169.137401)scale(0.1 -0.1)">
       <use xlink:href="#DejaVuSans-8722"/>
       <use x="83.789062" xlink:href="#DejaVuSans-49"/>
       <use x="147.412109" xlink:href="#DejaVuSans-46"/>
       <use x="179.199219" xlink:href="#DejaVuSans-48"/>
      </g>
     </g>
    </g>
    <g id="ytick_4">
     <g id="line2d_11">
      <g>
       <use style="stroke:#000000;stroke-width:0.8;" x="38.482813" xlink:href="#ma137bfeb21" y="140.629091"/>
      </g>
     </g>
     <g id="text_11">
      <!-- −0.5 -->
      <g transform="translate(7.2 144.42831)scale(0.1 -0.1)">
       <use xlink:href="#DejaVuSans-8722"/>
       <use x="83.789062" xlink:href="#DejaVuSans-48"/>
       <use x="147.412109" xlink:href="#DejaVuSans-46"/>
       <use x="179.199219" xlink:href="#DejaVuSans-53"/>
      </g>
     </g>
    </g>
    <g id="ytick_5">
     <g id="line2d_12">
      <g>
       <use style="stroke:#000000;stroke-width:0.8;" x="38.482813" xlink:href="#ma137bfeb21" y="115.92"/>
      </g>
     </g>
     <g id="text_12">
      <!-- 0.0 -->
      <g transform="translate(15.579688 119.719219)scale(0.1 -0.1)">
       <use xlink:href="#DejaVuSans-48"/>
       <use x="63.623047" xlink:href="#DejaVuSans-46"/>
       <use x="95.410156" xlink:href="#DejaVuSans-48"/>
      </g>
     </g>
    </g>
    <g id="ytick_6">
     <g id="line2d_13">
      <g>
       <use style="stroke:#000000;stroke-width:0.8;" x="38.482813" xlink:href="#ma137bfeb21" y="91.210909"/>
      </g>
     </g>
     <g id="text_13">
      <!-- 0.5 -->
      <g transform="translate(15.579688 95.010128)scale(0.1 -0.1)">
       <use xlink:href="#DejaVuSans-48"/>
       <use x="63.623047" xlink:href="#DejaVuSans-46"/>
       <use x="95.410156" xlink:href="#DejaVuSans-53"/>
      </g>
     </g>
    </g>
    <g id="ytick_7">
     <g id="line2d_14">
      <g>
       <use style="stroke:#000000;stroke-width:0.8;" x="38.482813" xlink:href="#ma137bfeb21" y="66.501818"/>
      </g>
     </g>
     <g id="text_14">
      <!-- 1.0 -->
      <g transform="translate(15.579688 70.301037)scale(0.1 -0.1)">
       <use xlink:href="#DejaVuSans-49"/>
       <use x="63.623047" xlink:href="#DejaVuSans-46"/>
       <use x="95.410156" xlink:href="#DejaVuSans-48"/>
      </g>
     </g>
    </g>
    <g id="ytick_8">
     <g id="line2d_15">
      <g>
       <use style="stroke:#000000;stroke-width:0.8;" x="38.482813" xlink:href="#ma137bfeb21" y="41.792727"/>
      </g>
     </g>
     <g id="text_15">
      <!-- 1.5 -->
      <g transform="translate(15.579688 45.591946)scale(0.1 -0.1)">
       <use xlink:href="#DejaVuSans-49"/>
       <use x="63.623047" xlink:href="#DejaVuSans-46"/>
       <use x="95.410156" xlink:href="#DejaVuSans-53"/>
      </g>
     </g>
    </g>
    <g id="ytick_9">
     <g id="line2d_16">
      <g>
       <use style="stroke:#000000;stroke-width:0.8;" x="38.482813" xlink:href="#ma137bfeb21" y="17.083636"/>
      </g>
     </g>
     <g id="text_16">
      <!-- 2.0 -->
      <g transform="translate(15.579688 20.882855)scale(0.1 -0.1)">
       <use xlink:href="#DejaVuSans-50"/>
       <use x="63.623047" xlink:href="#DejaVuSans-46"/>
       <use x="95.410156" xlink:href="#DejaVuSans-48"/>
      </g>
     </g>
    </g>
   </g>
   <g id="line2d_17">
    <path clip-path="url(#p9c3ea7ab1b)" d="M 53.700994 115.92 
L 61.291899 100.684236 
L 65.291277 93.164077 
L 68.593656 87.412657 
L 71.49427 82.794098 
L 74.114868 79.02773 
L 76.522408 75.946879 
L 78.756459 73.440443 
L 80.844415 71.424039 
L 82.810624 69.827101 
L 84.676391 68.592322 
L 86.456936 67.675622 
L 88.170521 67.039443 
L 89.835407 66.655565 
L 91.469856 66.505041 
L 93.095174 66.578418 
L 94.726579 66.875424 
L 96.385378 67.405464 
L 98.086787 68.185401 
L 99.84907 69.241423 
L 101.690489 70.608657 
L 103.629305 72.33095 
L 105.68378 74.460352 
L 107.87522 77.059901 
L 110.231018 80.208334 
L 112.787698 84.006187 
L 115.606133 88.602766 
L 118.783722 94.224825 
L 122.533519 101.33106 
L 127.567744 111.38832 
L 138.144486 132.626371 
L 141.985594 139.761613 
L 145.205793 145.289377 
L 148.054665 149.750477 
L 150.635695 153.39006 
L 153.009755 156.363346 
L 155.216413 158.779367 
L 157.283063 160.72005 
L 159.23101 162.251055 
L 161.081559 163.428211 
L 162.849929 164.294161 
L 164.554383 164.884908 
L 166.213181 165.227112 
L 167.844587 165.33818 
L 169.469905 165.225965 
L 171.104354 164.889303 
L 172.76924 164.317207 
L 174.47978 163.49138 
L 176.257282 162.382014 
L 178.113918 160.956292 
L 180.070996 159.167269 
L 182.146777 156.961621 
L 184.362566 154.275213 
L 186.748801 151.024116 
L 189.345049 147.101302 
L 192.215227 142.349991 
L 195.47195 136.513675 
L 199.361756 129.065047 
L 204.86775 117.990473 
L 213.621335 100.398001 
L 217.590277 92.952111 
L 220.877437 87.242974 
L 223.76892 82.653786 
L 226.38343 78.910208 
L 228.78184 75.853973 
L 231.009804 73.366057 
L 233.094716 71.363426 
L 235.057881 69.779119 
L 236.920605 68.555843 
L 238.698106 67.64953 
L 240.411691 67.021776 
L 242.076576 66.646168 
L 243.711025 66.503806 
L 245.336343 66.585306 
L 246.967749 66.890434 
L 248.626547 67.428662 
L 250.331001 68.218506 
L 252.096327 69.285432 
L 253.940789 70.664607 
L 255.882649 72.399901 
L 257.940168 74.543348 
L 260.134651 77.157931 
L 262.496537 80.326593 
L 265.062348 84.151037 
L 267.889914 88.776373 
L 271.082721 94.439896 
L 274.859911 101.613152 
L 279.976315 111.849217 
L 290.172599 132.330889 
L 294.044143 139.541001 
L 297.282605 145.116793 
L 300.140608 149.607617 
L 302.730768 153.274424 
L 305.110916 156.26855 
L 307.323661 158.703421 
L 309.393355 160.658254 
L 311.344345 162.202258 
L 313.197938 163.391276 
L 314.969352 164.26797 
L 316.67685 164.868396 
L 318.338692 165.219281 
L 319.973141 165.338093 
L 321.598459 165.233166 
L 323.232908 164.903799 
L 324.89475 164.340309 
L 326.605291 163.522366 
L 328.379748 162.423129 
L 330.233341 161.008552 
L 332.187376 159.231719 
L 334.257069 157.042733 
L 336.469815 154.370971 
L 338.849962 151.139753 
L 341.440123 147.238411 
L 344.301169 142.515075 
L 347.542675 136.719508 
L 351.405088 129.337213 
L 356.81064 118.477432 
L 358.064631 115.92 
L 358.064631 115.92 
" style="fill:none;stroke:#1f77b4;stroke-linecap:square;stroke-width:1.5;"/>
   </g>
   <g id="line2d_18">
    <path clip-path="url(#p9c3ea7ab1b)" d="M 53.700994 115.92 
L 61.094061 86.217471 
L 64.980823 71.536425 
L 68.179717 60.293349 
L 70.973803 51.259436 
L 73.481785 43.879342 
L 75.767579 37.8234 
L 77.864665 32.877569 
L 79.800437 28.863625 
L 81.593157 25.641502 
L 83.258043 23.091548 
L 84.807269 21.112333 
L 86.253011 19.614955 
L 87.604399 18.525396 
L 88.879695 17.77514 
L 90.094118 17.31354 
L 91.26593 17.103087 
L 92.416436 17.121448 
L 93.569986 17.363628 
L 94.747885 17.841556 
L 95.968395 18.581411 
L 97.252823 19.626839 
L 98.613342 21.029394 
L 100.062127 22.851912 
L 101.611353 25.168909 
L 103.273195 28.066662 
L 105.059828 31.642753 
L 106.983425 36.004806 
L 109.065293 41.292528 
L 111.329782 47.668331 
L 113.816457 55.354248 
L 116.58315 64.651481 
L 119.739433 76.06656 
L 123.531842 90.658081 
L 128.955656 112.508209 
L 137.286172 146.016153 
L 141.151629 160.594643 
L 144.338348 171.77486 
L 147.126347 180.770573 
L 149.628241 188.115654 
L 151.907947 194.140138 
L 154.00199 199.06499 
L 155.934718 203.060034 
L 157.724395 206.265358 
L 159.386237 208.80058 
L 160.932419 210.767059 
L 162.375117 212.253592 
L 163.726505 213.336188 
L 164.998758 214.07836 
L 166.210138 214.533392 
L 167.378906 214.738659 
L 168.529412 214.71602 
L 169.682961 214.469558 
L 170.86086 213.987273 
L 172.084415 213.240766 
L 173.368842 212.190014 
L 174.729361 210.781891 
L 176.178146 208.953545 
L 177.730416 206.62552 
L 179.392259 203.720643 
L 181.178891 200.137172 
L 183.105532 195.760218 
L 185.190444 190.455785 
L 187.457976 184.061542 
L 189.947695 176.355618 
L 192.717432 167.037122 
L 195.879802 155.588663 
L 199.684385 140.938682 
L 205.156898 118.88179 
L 213.353493 85.915548 
L 217.221993 71.320157 
L 220.411756 60.124073 
L 223.199755 51.123337 
L 225.704693 43.764651 
L 227.984399 37.735939 
L 230.078442 32.806922 
L 232.01117 28.807821 
L 233.80389 25.59354 
L 235.465732 23.055354 
L 237.011915 21.08605 
L 238.454613 19.596833 
L 239.806001 18.51169 
L 241.078254 17.767097 
L 242.289633 17.309746 
L 243.461445 17.101994 
L 244.611951 17.12301 
L 245.7655 17.367848 
L 246.943399 17.84848 
L 248.166954 18.593281 
L 249.451381 19.642259 
L 250.8119 21.048526 
L 252.260685 22.87493 
L 253.809912 25.195991 
L 255.471754 28.09798 
L 257.258386 31.678459 
L 259.185027 36.052337 
L 261.269939 41.353636 
L 263.537471 47.744728 
L 266.02719 55.447535 
L 268.796927 64.763021 
L 271.956253 76.197308 
L 275.757793 90.832234 
L 281.218131 112.837169 
L 289.448206 145.939245 
L 293.316707 160.533698 
L 296.50647 171.728741 
L 299.294468 180.728385 
L 301.799406 188.085958 
L 304.079113 194.113558 
L 306.173155 199.041479 
L 308.105884 203.039512 
L 309.89556 206.247721 
L 311.557402 208.785708 
L 313.103585 210.754824 
L 314.546283 212.243862 
L 315.897671 213.328836 
L 317.169924 214.073267 
L 318.381303 214.530464 
L 319.553115 214.738066 
L 320.703621 214.716903 
L 321.85717 214.471917 
L 323.035069 213.991134 
L 324.258624 213.246178 
L 325.543051 212.197039 
L 326.90357 210.790603 
L 328.352355 208.964023 
L 329.901582 206.642777 
L 331.563424 203.740596 
L 333.350056 200.159917 
L 335.276697 195.785834 
L 337.361609 190.484326 
L 339.629141 184.093023 
L 342.11886 176.390009 
L 344.888597 167.074322 
L 348.047923 155.639849 
L 351.849463 141.004762 
L 357.309801 118.999728 
L 358.064631 115.92 
L 358.064631 115.92 
" style="fill:none;stroke:#ff7f0e;stroke-linecap:square;stroke-width:1.5;"/>
   </g>
   <g id="line2d_19">
    <path clip-path="url(#p9c3ea7ab1b)" d="M 53.700994 115.92 
L 58.363892 97.358835 
L 60.795782 88.596298 
L 62.774165 82.263065 
L 64.478618 77.519794 
L 65.985234 73.956714 
L 67.327491 71.327228 
L 68.532783 69.431598 
L 69.622415 68.113449 
L 70.608563 67.25367 
L 71.512532 66.74877 
L 72.358672 66.524268 
L 73.174375 66.536031 
L 73.993121 66.773056 
L 74.842304 67.2561 
L 75.75236 68.039198 
L 76.738508 69.1927 
L 77.822054 70.816843 
L 79.018215 73.028209 
L 80.34221 75.962403 
L 81.821432 79.803093 
L 83.492405 84.785696 
L 85.425133 91.280185 
L 87.768757 99.978549 
L 91.128965 113.40133 
L 96.49495 134.804443 
L 98.905534 143.461941 
L 100.874786 149.741422 
L 102.573152 154.445953 
L 104.07368 157.97568 
L 105.412893 160.582787 
L 106.615142 162.459268 
L 107.698687 163.75825 
L 108.681791 164.605896 
L 109.582717 165.101203 
L 110.425812 165.318319 
L 111.241515 165.300598 
L 112.060262 165.057606 
L 112.912488 164.566234 
L 113.822545 163.775727 
L 114.811736 162.610289 
L 115.898325 160.971619 
L 117.09753 158.742995 
L 118.427612 155.781459 
L 119.912922 151.908426 
L 121.589982 146.888839 
L 123.531842 140.342829 
L 125.893727 131.553976 
L 129.314809 117.866373 
L 134.504261 97.171938 
L 136.923976 88.469651 
L 138.896272 82.169959 
L 140.597681 77.447583 
L 142.101253 73.902685 
L 143.44351 71.283162 
L 144.648802 69.396941 
L 145.735391 68.090719 
L 146.721539 67.238103 
L 147.625508 66.739861 
L 148.468604 66.52199 
L 149.284307 66.53898 
L 150.103053 66.781238 
L 150.95528 67.271854 
L 151.865336 68.061563 
L 152.854528 69.226152 
L 153.941117 70.863916 
L 155.140321 73.091582 
L 156.470404 76.052118 
L 157.955713 79.924127 
L 159.632774 84.942692 
L 161.574633 91.487724 
L 163.933475 100.263934 
L 167.351513 113.937947 
L 172.553139 134.680989 
L 174.972854 143.381967 
L 176.94515 149.680247 
L 178.64656 154.401186 
L 180.147088 157.938132 
L 181.489345 160.557504 
L 182.694637 162.443582 
L 183.781226 163.749671 
L 184.767374 164.602164 
L 185.671343 165.100291 
L 186.514439 165.318055 
L 187.330142 165.30096 
L 188.148888 165.058597 
L 189.001115 164.567873 
L 189.911171 163.77805 
L 190.900363 162.61334 
L 191.986952 160.975446 
L 193.186156 158.747643 
L 194.516239 155.786964 
L 196.001548 151.914809 
L 197.678609 146.896098 
L 199.620468 140.350927 
L 201.97931 131.574594 
L 205.397348 117.900502 
L 210.598974 97.157575 
L 213.018689 88.456742 
L 214.990985 82.15862 
L 216.692395 77.43784 
L 218.192923 73.901051 
L 219.53518 71.281829 
L 220.740472 69.395894 
L 221.827061 68.089938 
L 222.813209 67.237569 
L 223.714134 66.740775 
L 224.55723 66.522257 
L 225.372933 66.538619 
L 226.191679 66.78025 
L 227.043906 67.270217 
L 227.953962 68.059242 
L 228.943154 69.223102 
L 230.029743 70.86009 
L 231.225904 73.080742 
L 232.552943 76.031945 
L 234.035209 79.892231 
L 235.712269 84.906416 
L 237.651085 91.43646 
L 240.006883 100.196212 
L 243.409702 113.804543 
L 248.650897 134.70684 
L 251.067568 143.394873 
L 253.039864 149.691583 
L 254.741274 154.410924 
L 256.241802 157.946302 
L 257.581015 160.558837 
L 258.786307 162.444629 
L 259.872896 163.750452 
L 260.859044 164.602697 
L 261.759969 165.099377 
L 262.603065 165.317788 
L 263.418768 165.301321 
L 264.237514 165.059585 
L 265.089741 164.569511 
L 265.999797 163.780371 
L 266.988989 162.61639 
L 268.075578 160.979272 
L 269.271739 158.758484 
L 270.598778 155.807138 
L 272.081044 151.946706 
L 273.758104 146.932375 
L 275.69692 140.402192 
L 278.052718 131.642316 
L 281.455537 118.033905 
L 286.696732 97.131724 
L 289.113403 88.443837 
L 291.085699 82.147284 
L 292.787109 77.428102 
L 294.287637 73.892881 
L 295.62685 71.280497 
L 296.832142 69.394847 
L 297.918731 68.089158 
L 298.904879 67.237036 
L 299.805804 66.74047 
L 300.6489 66.522168 
L 301.464603 66.538739 
L 302.283349 66.780579 
L 303.135576 67.270762 
L 304.045632 68.060016 
L 305.034824 69.224119 
L 306.121413 70.861365 
L 307.317574 73.08229 
L 308.644613 76.033779 
L 310.126879 79.894357 
L 311.803939 84.908834 
L 313.742755 91.439157 
L 316.098553 100.199156 
L 319.501372 113.807646 
L 324.742567 134.709712 
L 327.159238 143.397454 
L 329.131534 149.69385 
L 330.832944 154.412872 
L 332.333472 157.947935 
L 333.672685 160.560169 
L 334.877977 162.445676 
L 335.964566 163.751233 
L 336.950714 164.603231 
L 337.851639 165.099682 
L 338.694735 165.317877 
L 339.510438 165.301201 
L 340.329184 165.059256 
L 341.181411 164.568965 
L 342.091467 163.779598 
L 343.080659 162.615373 
L 344.167248 160.977997 
L 345.366453 158.750741 
L 346.693492 155.79797 
L 348.175757 151.936077 
L 349.852818 146.920286 
L 351.791633 140.388704 
L 354.150475 131.61582 
L 357.559382 117.981166 
L 358.064631 115.92 
L 358.064631 115.92 
" style="fill:none;stroke:#2ca02c;stroke-linecap:square;stroke-width:1.5;"/>
   </g>
   <g id="line2d_20">
    <path clip-path="url(#p9c3ea7ab1b)" d="M 53.700994 92.227662 
L 56.933368 86.667701 
L 59.788328 82.186593 
L 62.375445 78.528668 
L 64.752548 75.542485 
L 66.962251 73.114579 
L 69.031944 71.163077 
L 70.982934 69.622339 
L 72.833484 68.438237 
L 74.604898 67.564224 
L 76.312395 66.966421 
L 77.974237 66.618114 
L 79.608686 66.50185 
L 81.234004 66.609311 
L 82.868453 66.941214 
L 84.533339 67.508506 
L 86.24388 68.329468 
L 88.018337 69.431775 
L 89.874974 70.85202 
L 91.829008 72.632476 
L 93.901745 74.828578 
L 96.114491 77.504491 
L 98.497682 80.744203 
L 101.090886 84.654864 
L 103.954977 89.388204 
L 107.202569 95.199862 
L 111.077157 102.610906 
L 116.522277 113.555363 
L 125.46457 131.527957 
L 129.424381 138.95156 
L 132.705453 144.645476 
L 135.593893 149.225615 
L 138.205359 152.960985 
L 140.603769 156.013579 
L 142.828689 158.494717 
L 144.910557 160.491562 
L 146.873722 162.073287 
L 148.733403 163.292271 
L 150.510904 164.196561 
L 152.224489 164.822334 
L 153.889374 165.195998 
L 155.523823 165.336441 
L 157.149142 165.253032 
L 158.780547 164.945995 
L 160.439345 164.405843 
L 162.143799 163.614049 
L 163.909125 162.545142 
L 165.753588 161.16395 
L 167.695447 159.426606 
L 169.752966 157.281081 
L 171.950493 154.66055 
L 174.312379 151.489343 
L 176.87819 147.662394 
L 179.7088 143.029451 
L 182.90465 137.35768 
L 186.684884 130.175816 
L 191.816506 119.906706 
L 201.945829 99.55842 
L 205.823461 92.334006 
L 209.064966 86.750351 
L 211.926013 82.252454 
L 214.516173 78.583537 
L 216.896321 75.587291 
L 219.109067 73.150311 
L 221.181804 71.190761 
L 223.132794 69.645183 
L 224.986387 68.454624 
L 226.757801 67.576425 
L 228.465298 66.974526 
L 230.12714 66.622195 
L 231.761589 66.501952 
L 233.386908 66.605457 
L 235.021357 66.933399 
L 236.683199 67.495454 
L 238.393739 68.31194 
L 240.168197 69.409696 
L 242.02179 70.822768 
L 243.975824 72.598069 
L 246.045518 74.785506 
L 248.25522 77.451807 
L 250.635367 80.681014 
L 253.222484 84.575578 
L 256.080487 89.29135 
L 259.318949 95.078723 
L 263.178318 102.452492 
L 268.565608 113.273165 
L 277.699652 131.631034 
L 281.647288 139.025702 
L 284.925317 144.708606 
L 287.810714 149.27834 
L 290.419136 153.004117 
L 292.814502 156.04804 
L 295.039422 158.52464 
L 297.12129 160.51701 
L 299.081412 162.092129 
L 300.941092 163.307275 
L 302.718594 164.207814 
L 304.429134 164.829025 
L 306.09402 165.199507 
L 307.728469 165.33681 
L 309.353787 165.250277 
L 310.988236 164.93933 
L 312.647035 164.39561 
L 314.351488 163.6002 
L 316.119859 162.525556 
L 317.967364 161.137682 
L 319.912267 159.392689 
L 321.97283 157.238547 
L 324.170357 154.612308 
L 326.535286 151.431091 
L 329.104141 147.593326 
L 331.937795 142.948919 
L 335.139732 137.259709 
L 338.935185 130.041971 
L 344.106375 119.686926 
L 354.059165 99.690332 
L 357.948971 92.435027 
L 358.064631 92.227662 
L 358.064631 92.227662 
" style="fill:none;stroke:#d62728;stroke-linecap:square;stroke-width:1.5;"/>
   </g>
   <g id="patch_3">
    <path d="M 38.482813 224.64 
L 38.482813 7.2 
" style="fill:none;stroke:#000000;stroke-linecap:square;stroke-linejoin:miter;stroke-width:0.8;"/>
   </g>
   <g id="patch_4">
    <path d="M 373.282813 224.64 
L 373.282813 7.2 
" style="fill:none;stroke:#000000;stroke-linecap:square;stroke-linejoin:miter;stroke-width:0.8;"/>
   </g>
   <g id="patch_5">
    <path d="M 38.482813 224.64 
L 373.282812 224.64 
" style="fill:none;stroke:#000000;stroke-linecap:square;stroke-linejoin:miter;stroke-width:0.8;"/>
   </g>
   <g id="patch_6">
    <path d="M 38.482813 7.2 
L 373.282812 7.2 
" style="fill:none;stroke:#000000;stroke-linecap:square;stroke-linejoin:miter;stroke-width:0.8;"/>
   </g>
   <g id="legend_1">
    <g id="patch_7">
     <path d="M 175.995312 73.9125 
L 366.282812 73.9125 
Q 368.282812 73.9125 368.282812 71.9125 
L 368.282812 14.2 
Q 368.282812 12.2 366.282812 12.2 
L 175.995312 12.2 
Q 173.995312 12.2 173.995312 14.2 
L 173.995312 71.9125 
Q 173.995312 73.9125 175.995312 73.9125 
z
" style="fill:#ffffff;opacity:0.8;stroke:#cccccc;stroke-linejoin:miter;"/>
    </g>
    <g id="line2d_21">
     <path d="M 177.995312 20.298437 
L 197.995312 20.298437 
" style="fill:none;stroke:#1f77b4;stroke-linecap:square;stroke-width:1.5;"/>
    </g>
    <g id="line2d_22"/>
    <g id="text_17">
     <!-- Ampl=1, Omega=1, Phase=0 -->
     <defs>
      <path d="M 34.1875 63.1875 
L 20.796875 26.90625 
L 47.609375 26.90625 
z
M 28.609375 72.90625 
L 39.796875 72.90625 
L 67.578125 0 
L 57.328125 0 
L 50.6875 18.703125 
L 17.828125 18.703125 
L 11.1875 0 
L 0.78125 0 
z
" id="DejaVuSans-65"/>
      <path d="M 52 44.1875 
Q 55.375 50.25 60.0625 53.125 
Q 64.75 56 71.09375 56 
Q 79.640625 56 84.28125 50.015625 
Q 88.921875 44.046875 88.921875 33.015625 
L 88.921875 0 
L 79.890625 0 
L 79.890625 32.71875 
Q 79.890625 40.578125 77.09375 44.375 
Q 74.3125 48.1875 68.609375 48.1875 
Q 61.625 48.1875 57.5625 43.546875 
Q 53.515625 38.921875 53.515625 30.90625 
L 53.515625 0 
L 44.484375 0 
L 44.484375 32.71875 
Q 44.484375 40.625 41.703125 44.40625 
Q 38.921875 48.1875 33.109375 48.1875 
Q 26.21875 48.1875 22.15625 43.53125 
Q 18.109375 38.875 18.109375 30.90625 
L 18.109375 0 
L 9.078125 0 
L 9.078125 54.6875 
L 18.109375 54.6875 
L 18.109375 46.1875 
Q 21.1875 51.21875 25.484375 53.609375 
Q 29.78125 56 35.6875 56 
Q 41.65625 56 45.828125 52.96875 
Q 50 49.953125 52 44.1875 
z
" id="DejaVuSans-109"/>
      <path d="M 18.109375 8.203125 
L 18.109375 -20.796875 
L 9.078125 -20.796875 
L 9.078125 54.6875 
L 18.109375 54.6875 
L 18.109375 46.390625 
Q 20.953125 51.265625 25.265625 53.625 
Q 29.59375 56 35.59375 56 
Q 45.5625 56 51.78125 48.09375 
Q 58.015625 40.1875 58.015625 27.296875 
Q 58.015625 14.40625 51.78125 6.484375 
Q 45.5625 -1.421875 35.59375 -1.421875 
Q 29.59375 -1.421875 25.265625 0.953125 
Q 20.953125 3.328125 18.109375 8.203125 
z
M 48.6875 27.296875 
Q 48.6875 37.203125 44.609375 42.84375 
Q 40.53125 48.484375 33.40625 48.484375 
Q 26.265625 48.484375 22.1875 42.84375 
Q 18.109375 37.203125 18.109375 27.296875 
Q 18.109375 17.390625 22.1875 11.75 
Q 26.265625 6.109375 33.40625 6.109375 
Q 40.53125 6.109375 44.609375 11.75 
Q 48.6875 17.390625 48.6875 27.296875 
z
" id="DejaVuSans-112"/>
      <path d="M 9.421875 75.984375 
L 18.40625 75.984375 
L 18.40625 0 
L 9.421875 0 
z
" id="DejaVuSans-108"/>
      <path d="M 10.59375 45.40625 
L 73.1875 45.40625 
L 73.1875 37.203125 
L 10.59375 37.203125 
z
M 10.59375 25.484375 
L 73.1875 25.484375 
L 73.1875 17.1875 
L 10.59375 17.1875 
z
" id="DejaVuSans-61"/>
      <path d="M 11.71875 12.40625 
L 22.015625 12.40625 
L 22.015625 4 
L 14.015625 -11.625 
L 7.71875 -11.625 
L 11.71875 4 
z
" id="DejaVuSans-44"/>
      <path id="DejaVuSans-32"/>
      <path d="M 39.40625 66.21875 
Q 28.65625 66.21875 22.328125 58.203125 
Q 16.015625 50.203125 16.015625 36.375 
Q 16.015625 22.609375 22.328125 14.59375 
Q 28.65625 6.59375 39.40625 6.59375 
Q 50.140625 6.59375 56.421875 14.59375 
Q 62.703125 22.609375 62.703125 36.375 
Q 62.703125 50.203125 56.421875 58.203125 
Q 50.140625 66.21875 39.40625 66.21875 
z
M 39.40625 74.21875 
Q 54.734375 74.21875 63.90625 63.9375 
Q 73.09375 53.65625 73.09375 36.375 
Q 73.09375 19.140625 63.90625 8.859375 
Q 54.734375 -1.421875 39.40625 -1.421875 
Q 24.03125 -1.421875 14.8125 8.828125 
Q 5.609375 19.09375 5.609375 36.375 
Q 5.609375 53.65625 14.8125 63.9375 
Q 24.03125 74.21875 39.40625 74.21875 
z
" id="DejaVuSans-79"/>
      <path d="M 56.203125 29.59375 
L 56.203125 25.203125 
L 14.890625 25.203125 
Q 15.484375 15.921875 20.484375 11.0625 
Q 25.484375 6.203125 34.421875 6.203125 
Q 39.59375 6.203125 44.453125 7.46875 
Q 49.3125 8.734375 54.109375 11.28125 
L 54.109375 2.78125 
Q 49.265625 0.734375 44.1875 -0.34375 
Q 39.109375 -1.421875 33.890625 -1.421875 
Q 20.796875 -1.421875 13.15625 6.1875 
Q 5.515625 13.8125 5.515625 26.8125 
Q 5.515625 40.234375 12.765625 48.109375 
Q 20.015625 56 32.328125 56 
Q 43.359375 56 49.78125 48.890625 
Q 56.203125 41.796875 56.203125 29.59375 
z
M 47.21875 32.234375 
Q 47.125 39.59375 43.09375 43.984375 
Q 39.0625 48.390625 32.421875 48.390625 
Q 24.90625 48.390625 20.390625 44.140625 
Q 15.875 39.890625 15.1875 32.171875 
z
" id="DejaVuSans-101"/>
      <path d="M 45.40625 27.984375 
Q 45.40625 37.75 41.375 43.109375 
Q 37.359375 48.484375 30.078125 48.484375 
Q 22.859375 48.484375 18.828125 43.109375 
Q 14.796875 37.75 14.796875 27.984375 
Q 14.796875 18.265625 18.828125 12.890625 
Q 22.859375 7.515625 30.078125 7.515625 
Q 37.359375 7.515625 41.375 12.890625 
Q 45.40625 18.265625 45.40625 27.984375 
z
M 54.390625 6.78125 
Q 54.390625 -7.171875 48.1875 -13.984375 
Q 42 -20.796875 29.203125 -20.796875 
Q 24.46875 -20.796875 20.265625 -20.09375 
Q 16.0625 -19.390625 12.109375 -17.921875 
L 12.109375 -9.1875 
Q 16.0625 -11.328125 19.921875 -12.34375 
Q 23.78125 -13.375 27.78125 -13.375 
Q 36.625 -13.375 41.015625 -8.765625 
Q 45.40625 -4.15625 45.40625 5.171875 
L 45.40625 9.625 
Q 42.625 4.78125 38.28125 2.390625 
Q 33.9375 0 27.875 0 
Q 17.828125 0 11.671875 7.65625 
Q 5.515625 15.328125 5.515625 27.984375 
Q 5.515625 40.671875 11.671875 48.328125 
Q 17.828125 56 27.875 56 
Q 33.9375 56 38.28125 53.609375 
Q 42.625 51.21875 45.40625 46.390625 
L 45.40625 54.6875 
L 54.390625 54.6875 
z
" id="DejaVuSans-103"/>
      <path d="M 34.28125 27.484375 
Q 23.390625 27.484375 19.1875 25 
Q 14.984375 22.515625 14.984375 16.5 
Q 14.984375 11.71875 18.140625 8.90625 
Q 21.296875 6.109375 26.703125 6.109375 
Q 34.1875 6.109375 38.703125 11.40625 
Q 43.21875 16.703125 43.21875 25.484375 
L 43.21875 27.484375 
z
M 52.203125 31.203125 
L 52.203125 0 
L 43.21875 0 
L 43.21875 8.296875 
Q 40.140625 3.328125 35.546875 0.953125 
Q 30.953125 -1.421875 24.3125 -1.421875 
Q 15.921875 -1.421875 10.953125 3.296875 
Q 6 8.015625 6 15.921875 
Q 6 25.140625 12.171875 29.828125 
Q 18.359375 34.515625 30.609375 34.515625 
L 43.21875 34.515625 
L 43.21875 35.40625 
Q 43.21875 41.609375 39.140625 45 
Q 35.0625 48.390625 27.6875 48.390625 
Q 23 48.390625 18.546875 47.265625 
Q 14.109375 46.140625 10.015625 43.890625 
L 10.015625 52.203125 
Q 14.9375 54.109375 19.578125 55.046875 
Q 24.21875 56 28.609375 56 
Q 40.484375 56 46.34375 49.84375 
Q 52.203125 43.703125 52.203125 31.203125 
z
" id="DejaVuSans-97"/>
      <path d="M 19.671875 64.796875 
L 19.671875 37.40625 
L 32.078125 37.40625 
Q 38.96875 37.40625 42.71875 40.96875 
Q 46.484375 44.53125 46.484375 51.125 
Q 46.484375 57.671875 42.71875 61.234375 
Q 38.96875 64.796875 32.078125 64.796875 
z
M 9.8125 72.90625 
L 32.078125 72.90625 
Q 44.34375 72.90625 50.609375 67.359375 
Q 56.890625 61.8125 56.890625 51.125 
Q 56.890625 40.328125 50.609375 34.8125 
Q 44.34375 29.296875 32.078125 29.296875 
L 19.671875 29.296875 
L 19.671875 0 
L 9.8125 0 
z
" id="DejaVuSans-80"/>
      <path d="M 54.890625 33.015625 
L 54.890625 0 
L 45.90625 0 
L 45.90625 32.71875 
Q 45.90625 40.484375 42.875 44.328125 
Q 39.84375 48.1875 33.796875 48.1875 
Q 26.515625 48.1875 22.3125 43.546875 
Q 18.109375 38.921875 18.109375 30.90625 
L 18.109375 0 
L 9.078125 0 
L 9.078125 75.984375 
L 18.109375 75.984375 
L 18.109375 46.1875 
Q 21.34375 51.125 25.703125 53.5625 
Q 30.078125 56 35.796875 56 
Q 45.21875 56 50.046875 50.171875 
Q 54.890625 44.34375 54.890625 33.015625 
z
" id="DejaVuSans-104"/>
      <path d="M 44.28125 53.078125 
L 44.28125 44.578125 
Q 40.484375 46.53125 36.375 47.5 
Q 32.28125 48.484375 27.875 48.484375 
Q 21.1875 48.484375 17.84375 46.4375 
Q 14.5 44.390625 14.5 40.28125 
Q 14.5 37.15625 16.890625 35.375 
Q 19.28125 33.59375 26.515625 31.984375 
L 29.59375 31.296875 
Q 39.15625 29.25 43.1875 25.515625 
Q 47.21875 21.78125 47.21875 15.09375 
Q 47.21875 7.46875 41.1875 3.015625 
Q 35.15625 -1.421875 24.609375 -1.421875 
Q 20.21875 -1.421875 15.453125 -0.5625 
Q 10.6875 0.296875 5.421875 2 
L 5.421875 11.28125 
Q 10.40625 8.6875 15.234375 7.390625 
Q 20.0625 6.109375 24.8125 6.109375 
Q 31.15625 6.109375 34.5625 8.28125 
Q 37.984375 10.453125 37.984375 14.40625 
Q 37.984375 18.0625 35.515625 20.015625 
Q 33.0625 21.96875 24.703125 23.78125 
L 21.578125 24.515625 
Q 13.234375 26.265625 9.515625 29.90625 
Q 5.8125 33.546875 5.8125 39.890625 
Q 5.8125 47.609375 11.28125 51.796875 
Q 16.75 56 26.8125 56 
Q 31.78125 56 36.171875 55.265625 
Q 40.578125 54.546875 44.28125 53.078125 
z
" id="DejaVuSans-115"/>
     </defs>
     <g transform="translate(205.995312 23.798437)scale(0.1 -0.1)">
      <use xlink:href="#DejaVuSans-65"/>
      <use x="68.408203" xlink:href="#DejaVuSans-109"/>
      <use x="165.820312" xlink:href="#DejaVuSans-112"/>
      <use x="229.296875" xlink:href="#DejaVuSans-108"/>
      <use x="257.080078" xlink:href="#DejaVuSans-61"/>
      <use x="340.869141" xlink:href="#DejaVuSans-49"/>
      <use x="404.492188" xlink:href="#DejaVuSans-44"/>
      <use x="436.279297" xlink:href="#DejaVuSans-32"/>
      <use x="468.066406" xlink:href="#DejaVuSans-79"/>
      <use x="546.777344" xlink:href="#DejaVuSans-109"/>
      <use x="644.189453" xlink:href="#DejaVuSans-101"/>
      <use x="705.712891" xlink:href="#DejaVuSans-103"/>
      <use x="769.189453" xlink:href="#DejaVuSans-97"/>
      <use x="830.46875" xlink:href="#DejaVuSans-61"/>
      <use x="914.257812" xlink:href="#DejaVuSans-49"/>
      <use x="977.880859" xlink:href="#DejaVuSans-44"/>
      <use x="1009.667969" xlink:href="#DejaVuSans-32"/>
      <use x="1041.455078" xlink:href="#DejaVuSans-80"/>
      <use x="1101.757812" xlink:href="#DejaVuSans-104"/>
      <use x="1165.136719" xlink:href="#DejaVuSans-97"/>
      <use x="1226.416016" xlink:href="#DejaVuSans-115"/>
      <use x="1278.515625" xlink:href="#DejaVuSans-101"/>
      <use x="1340.039062" xlink:href="#DejaVuSans-61"/>
      <use x="1423.828125" xlink:href="#DejaVuSans-48"/>
     </g>
    </g>
    <g id="line2d_23">
     <path d="M 177.995312 34.976562 
L 197.995312 34.976562 
" style="fill:none;stroke:#ff7f0e;stroke-linecap:square;stroke-width:1.5;"/>
    </g>
    <g id="line2d_24"/>
    <g id="text_18">
     <!-- Ampl=1, Omega=2, Phase=0 -->
     <g transform="translate(205.995312 38.476562)scale(0.1 -0.1)">
      <use xlink:href="#DejaVuSans-65"/>
      <use x="68.408203" xlink:href="#DejaVuSans-109"/>
      <use x="165.820312" xlink:href="#DejaVuSans-112"/>
      <use x="229.296875" xlink:href="#DejaVuSans-108"/>
      <use x="257.080078" xlink:href="#DejaVuSans-61"/>
      <use x="340.869141" xlink:href="#DejaVuSans-49"/>
      <use x="404.492188" xlink:href="#DejaVuSans-44"/>
      <use x="436.279297" xlink:href="#DejaVuSans-32"/>
      <use x="468.066406" xlink:href="#DejaVuSans-79"/>
      <use x="546.777344" xlink:href="#DejaVuSans-109"/>
      <use x="644.189453" xlink:href="#DejaVuSans-101"/>
      <use x="705.712891" xlink:href="#DejaVuSans-103"/>
      <use x="769.189453" xlink:href="#DejaVuSans-97"/>
      <use x="830.46875" xlink:href="#DejaVuSans-61"/>
      <use x="914.257812" xlink:href="#DejaVuSans-50"/>
      <use x="977.880859" xlink:href="#DejaVuSans-44"/>
      <use x="1009.667969" xlink:href="#DejaVuSans-32"/>
      <use x="1041.455078" xlink:href="#DejaVuSans-80"/>
      <use x="1101.757812" xlink:href="#DejaVuSans-104"/>
      <use x="1165.136719" xlink:href="#DejaVuSans-97"/>
      <use x="1226.416016" xlink:href="#DejaVuSans-115"/>
      <use x="1278.515625" xlink:href="#DejaVuSans-101"/>
      <use x="1340.039062" xlink:href="#DejaVuSans-61"/>
      <use x="1423.828125" xlink:href="#DejaVuSans-48"/>
     </g>
    </g>
    <g id="line2d_25">
     <path d="M 177.995312 49.654687 
L 197.995312 49.654687 
" style="fill:none;stroke:#2ca02c;stroke-linecap:square;stroke-width:1.5;"/>
    </g>
    <g id="line2d_26"/>
    <g id="text_19">
     <!-- Ampl=2, Omega=1, Phase=0 -->
     <g transform="translate(205.995312 53.154687)scale(0.1 -0.1)">
      <use xlink:href="#DejaVuSans-65"/>
      <use x="68.408203" xlink:href="#DejaVuSans-109"/>
      <use x="165.820312" xlink:href="#DejaVuSans-112"/>
      <use x="229.296875" xlink:href="#DejaVuSans-108"/>
      <use x="257.080078" xlink:href="#DejaVuSans-61"/>
      <use x="340.869141" xlink:href="#DejaVuSans-50"/>
      <use x="404.492188" xlink:href="#DejaVuSans-44"/>
      <use x="436.279297" xlink:href="#DejaVuSans-32"/>
      <use x="468.066406" xlink:href="#DejaVuSans-79"/>
      <use x="546.777344" xlink:href="#DejaVuSans-109"/>
      <use x="644.189453" xlink:href="#DejaVuSans-101"/>
      <use x="705.712891" xlink:href="#DejaVuSans-103"/>
      <use x="769.189453" xlink:href="#DejaVuSans-97"/>
      <use x="830.46875" xlink:href="#DejaVuSans-61"/>
      <use x="914.257812" xlink:href="#DejaVuSans-49"/>
      <use x="977.880859" xlink:href="#DejaVuSans-44"/>
      <use x="1009.667969" xlink:href="#DejaVuSans-32"/>
      <use x="1041.455078" xlink:href="#DejaVuSans-80"/>
      <use x="1101.757812" xlink:href="#DejaVuSans-104"/>
      <use x="1165.136719" xlink:href="#DejaVuSans-97"/>
      <use x="1226.416016" xlink:href="#DejaVuSans-115"/>
      <use x="1278.515625" xlink:href="#DejaVuSans-101"/>
      <use x="1340.039062" xlink:href="#DejaVuSans-61"/>
      <use x="1423.828125" xlink:href="#DejaVuSans-48"/>
     </g>
    </g>
    <g id="line2d_27">
     <path d="M 177.995312 64.332812 
L 197.995312 64.332812 
" style="fill:none;stroke:#d62728;stroke-linecap:square;stroke-width:1.5;"/>
    </g>
    <g id="line2d_28"/>
    <g id="text_20">
     <!-- Ampl=1, Omega=1, Phase=0.5 -->
     <g transform="translate(205.995312 67.832812)scale(0.1 -0.1)">
      <use xlink:href="#DejaVuSans-65"/>
      <use x="68.408203" xlink:href="#DejaVuSans-109"/>
      <use x="165.820312" xlink:href="#DejaVuSans-112"/>
      <use x="229.296875" xlink:href="#DejaVuSans-108"/>
      <use x="257.080078" xlink:href="#DejaVuSans-61"/>
      <use x="340.869141" xlink:href="#DejaVuSans-49"/>
      <use x="404.492188" xlink:href="#DejaVuSans-44"/>
      <use x="436.279297" xlink:href="#DejaVuSans-32"/>
      <use x="468.066406" xlink:href="#DejaVuSans-79"/>
      <use x="546.777344" xlink:href="#DejaVuSans-109"/>
      <use x="644.189453" xlink:href="#DejaVuSans-101"/>
      <use x="705.712891" xlink:href="#DejaVuSans-103"/>
      <use x="769.189453" xlink:href="#DejaVuSans-97"/>
      <use x="830.46875" xlink:href="#DejaVuSans-61"/>
      <use x="914.257812" xlink:href="#DejaVuSans-49"/>
      <use x="977.880859" xlink:href="#DejaVuSans-44"/>
      <use x="1009.667969" xlink:href="#DejaVuSans-32"/>
      <use x="1041.455078" xlink:href="#DejaVuSans-80"/>
      <use x="1101.757812" xlink:href="#DejaVuSans-104"/>
      <use x="1165.136719" xlink:href="#DejaVuSans-97"/>
      <use x="1226.416016" xlink:href="#DejaVuSans-115"/>
      <use x="1278.515625" xlink:href="#DejaVuSans-101"/>
      <use x="1340.039062" xlink:href="#DejaVuSans-61"/>
      <use x="1423.828125" xlink:href="#DejaVuSans-48"/>
      <use x="1487.451172" xlink:href="#DejaVuSans-46"/>
      <use x="1519.238281" xlink:href="#DejaVuSans-53"/>
     </g>
    </g>
   </g>
  </g>
 </g>
 <defs>
  <clipPath id="p9c3ea7ab1b">
   <rect height="217.44" width="334.8" x="38.482813" y="7.2"/>
  </clipPath>
 </defs>
</svg>
